# xmcd
#
# Track frame offsets: 
#        182
#        20077
#        38172
#        55987
#        71885
#        89452
#        111510
#        129720
#        150317
#        169555
#
# Disc length: 2581 seconds
#
# Revision: 2
# Processed by: cddbd v1.5.2PL0 Copyright (c) Steve Scherf et al.
# Submitted via: ExactAudioCopy v0.99pb4
#
DISCID=880a130a
DTITLE=Kjarkas - Tecno Kjarkas
DYEAR=2003
DGENRE=Folklore 
TTITLE0=Imillitay - Ulises Hermosa
TTITLE1=Recuerdos - Edwin Castellanos
TTITLE2=Por Un Mundo Nuevo - Gonzalo Hermosa, Ulises Hermosa
TTITLE3=Llorando Se Me Fué - Gonzalo Hermosa, Ulises Hermosa
TTITLE4=Chuquiagumarca - Gonzalo Hermosa, Ulises Hermosa
TTITLE5=Tiempo Al Tiempo/ Gonzalo Hermosa, Ulises Hermosa
TTITLE6=Deje Mi Querencia - Gonzalo Hermosa
TTITLE7=Wayayay - Ulises Hermosa
TTITLE8=Al Final/ Gonzalo Hermosa, Ulises Hermosa
TTITLE9=Pasar Por El Camino - Chito Kawachi
EXTD=YEAR: 2003
EXTT0=
EXTT1=
EXTT2=
EXTT3=
EXTT4=
EXTT5=
EXTT6=
EXTT7=
EXTT8=
EXTT9=
PLAYORDER=
